/* XPM */
static char *_576142337688[] = {
/* columns rows colors chars-per-pixel */
"128 128 50 1 ",
"  c #154312",
". c #184615",
"X c #1A4817",
"o c #1C4B18",
"O c #1F5019",
"+ c #23541D",
"@ c #22591E",
"# c #275520",
"$ c #2B5522",
"% c #255B22",
"& c #2C5C25",
"* c #2E5E29",
"= c #315726",
"- c #315B25",
"; c #325D29",
": c #385E2B",
"> c #2D6126",
", c #2E6028",
"< c #316127",
"1 c #34632B",
"2 c #39652E",
"3 c #36692E",
"4 c #3A6A2F",
"5 c #366730",
"6 c #3A6630",
"7 c #376A31",
"8 c #3C6C32",
"9 c #3F6D38",
"0 c #3D7035",
"q c #3F7038",
"w c #426D35",
"e c #446E3A",
"r c #417236",
"t c #497037",
"y c #44733A",
"u c #4B743D",
"i c #467A3C",
"p c #4A7B3E",
"a c #50773E",
"s c #51793D",
"d c #477640",
"f c #4C7541",
"g c #4D7C43",
"h c #517744",
"j c #537C42",
"k c #4E8143",
"l c #4F8048",
"z c #528245",
"x c #54854A",
"c c #5A8A4E",
/* pixels */
"31311313=$*&&=&;eydyiyyy08r4r44ratstaaat==$=$$-$:t4ww4w463516565w9r0e0r062w:22223<<<3<3<wwww:te::=*&==-;yeyeyeyewwrwewww88w2w4w2",
"13133113*$=*$&*;yyyyydiy044w444rstaatatt==$$$---22ww4w44562516560rwrrr9r42222w22<>3>3<<3wrwweet:===;*&;;ereyyyeywrerrwrw884w8w8w",
"33113131=&&&=$$;yiiyyyiyrrr4r4rrtastaaat=$--$$=$42t48rr4516161659rq00rr0w2222:22>33<><3<wwwt:tf6==**-&&:reeyeyeywwwrrwwrw4w8w8w4",
"13333333*$==**=*ydyyiyyy844w444raatstaat=$-$==$-4t4w84r4255555660qwrrqwq22w22w223<<>3><3:wwtte6:;;=*&;&;eeyeyeyerywwwrww8w2w4w2w",
"334<113<;$*&$*$;yyiyyyyyr44tt4rrtstsstst-=$=====780888w86162615690rw0rrw2222w:2:><33<33<ww:ft:e:-*$;;&;;eryyrrttwywwrew9w4w2w2w8",
"3<333333*$=&==&*yiyyidiyrr44444rsssttsst=-$=$$$-79w80898565553658r0r0w0r2w22-w:w3<<<3<>3ww6tttt6*-;&&=;;eyeyttttwwrtrwrw2w8w4w4w",
"<4334<3<*$=$*&**yiyiyiyy4rr4r44tsttststt=-$---$$88r8888951655256r8r9rr0q222224:2<3<3><3>:wwwete:=&-;&--;rrittrttrrwwwrwww8w4w4w2",
"33<33333=&*&&=*,yyyyyyyyr44r444rstsstsst-$-==$--6w8r8897561615668rrr0wrww2242422>3<<>3>3wtwe:te:;-&;-&;;rtrrrtttwewrrwww4w8w2w8w",
"www498w988880070wwwww84wsrtir4srtttrtrrt3333>333flkklkli77776533<:<--<<<2244424233433334weyrtwee11111121ww4w4t22w86w668wwwwywtre",
"wwww9wweqqqqqqqq69968wwwrstsisitrr4trrtr33333333lcxxxxxl77777753@&@@@-@@2224422443444443rwywttwe323243224422:t4468668696wyywywwr",
"rerwrerwdqydqdqi9669w94wsisriist4trrrr4433333330lxxxxxll55775571&&---@&&2222244203443400trytryee4423332442w24:2466686626ytyreyyy",
"ewrw9e9eqqqqqdqq6e9999rwrsrstsitrtrrtrtr33333330lxxxxxxk55577555&&@@<@&@2242222433440334erywyye:114112232:w24442666w6698ywyttrrt",
"wee9w99rqqqqdqqqed69rtwwtiitssitrrrrii0i33333333lxxxcxxk77676755&&@&&&@@<224422443744444wtrwd99941321323224422:466w6668wrtyeretr",
"w9rwwrwwdqqdqqqd6696444wttssititr4rr430330033303lxxxxxxk77755755&%%&@--&42t2224444744484yyyyedd91414233244:442t468666266yywyryyr",
"9rwwew9rqqqqiqqqe6994tr4ittistit0r0ii43i33333333lxxxxxxl77776777&&+&@@-$:424422244444477rttrd9994411323322t44t2429866698etrrteet",
"9w99999wqqdqqdqqee6errrrtiiitiiti0i00iii33333333kxxxxxxk96979876&-&&----<4222222333334478w89999931232323242222:29w8w9w88rrtyryrr",
"557595590y0yiqqyfuffuufuryr0r0rykkkkkkkk>>>%@>>>ikkkkkkikkikikpp4r4444r4<<-<--<->><><<&<*******5266122611>1>>1<<eufuthetteeeeehe",
"795957570qi00iqifffuphuprrr0rerykkkkkkki>%%>>>@>ikkkkkkkisiispkir4r4444r:--<<--<<<<<>><>**5*****21621616>>>,>>1,tuffhehfttftteet",
"797575750i0iyqqipfufpuuuryr9r0rdkkkkkkkk>>>@>@@>ikkkkkkiisskkikirw4r4rr4<<<---<-<>><,,,,**5*****161662:1>>>>>>><euufhhfheeeehett",
"555597590yiqqi0iupfufpfprrrererikkkkkkkk>>@>@>>>ikikkkkiskikiippr44w4t44<<-<>-<-><>>,,>,*******5126:5261>1>>>,>>tufuthtetetteeet",
"755767870yqqiqyifffpuffurrrrr0rykkkkkkki>>@>>@>>ikkkkkkkiiikisip4rr44r442-<<@<<-,>,,,>,,****:***61623212>1>>>>11fffthftheettettt",
"599766770yir0iqippauhpfprrr0r9rpkkkkkkkk>@>@@>@>ikkkkkkikiskkkpprr44t44r<---<--<,,,,,,,,********62612221>>1>>1>>ftfftffheheeetee",
"595577770iqqyq0ifphpuffuryr9rrrykkkkkkkp>>%>>>@>ikkkkkkkikiippiirrr44tr4---<-<--,,,,,,,,********61612341>>>>>>><tffffhtetetteeee",
"575577770rqiy0irufphpuparrr9rqrdkkkkkkki>>>>>>>>ikkikikkisiiiissr44r4444w<<<-<<<1,,,1<,,********22262214>>>><>>*etfttftfteeeeett",
"*5*5**5*ryyryyyyffffffffeueytueer44r040riiiiisiizzzzzzcs<<<<3<<<<<<<1,,,8rrrqqi02:6:::6::;;;***;15155151*$*&&$*&--------==**;*1*",
"**5**55*rryy0yyifhehtfffeuuyytyw44444444kzzkkkkszzzcczzs>&<>><<&<<>>&<>19yyyyyy02266e:::::******:561:551&&&&&*&&=--$-==$==*;****",
"****5***0ryyyy0rthehhtffytutuyte44444440skskkskkzzzzzzcs-->--&&&>>>>->@>0yyyyyyr66:w6::6********516515:1&&&&$&&*$-$-==-=:=:;,&,*",
"5*5****500yyyyyyhhfhhhhfyyeyyutw40440440kkkkkkkkzczcczcs>>-<>-&<>>>><<<<0iyyyyyr:6:::e::**$*****15516155*;$&&&&$=$$=$==$==**>,,&",
"5*5**5**8yyyeeefeehhffffyeytyyew4440444iikkkkkkkcsczzzcs<<-<-<-&><->>-<<9yyyiyyr666w:::e********61251651&&&&@---==$=+==-&1>11>*1",
"******5*0yyyeeeehhehffffeutytuty44444444ksskkssksczzczcs@-<@<@>&<<>>>>->ryyyyyyr::::66:6*;******55155161&&&&-@-$-$$-==-=>&*&&*&&",
"*55*****9yyreyeethhefudutueyruty44444444skkkzzsscszczzcs<<<-<@&<>>>-&&>>0yyyyryrww:w6:::****$***:55151:5&&&&-@-$==$==$$$*>,,&&>*",
"5***55*59rrreyeeteheueeuutuyuute0r4rr4rriisisssssczzzzss<@<<<<&&>>>><<<>4r0r00r8:::::6:e*$$**$*$115115;1-&-<-<------:--:1&&,,1&>",
"55557,7777000007;5;;5::5ufffthhhfueyiiirtwwwwwwwtaaaaatt2<1;*1;1---=-&--21122562*11;;5*5$$$####$;1,1;*1;111*111157743743&&>&>>%,",
"5555777700000000:55:5;5;effffffetfypiiuiwwwww4t4atatatat:<11111,--&----$:26216:11111;;5:$o$$$#$*1;1;11,1;5;5;11;77734443&>&>>&&>",
"*555,77,007000071;:5:5:5ftffehheiipiiiiiwrrw4rr4aaaaaaat;1;11*11--&--&--1625661611;5;55*$$$$##$$11;1;11;1*,51,5134743743>>>&>&,>",
"5555577700000000:5;;1;5:ffffffffpiyiiprittwwtt4tttattatt11&1;1*;-;------156122225;*5;5**#$o$$#$$**1*1*1,111,11;144744343*&&>>,,%",
"5555577700030007:;5:;5*5efffffhfiyiiiiirt44tr4tttaaatsst;1,1;1,1-----&-&:2166611;1*15**;###$#+#$1;11*&115115,,7,37844333>,>%%,,%",
"5555557,000000005;;5:*5*effftffhipiiiuuitrt44tt4tsstsstt1,1;1,1;-&-&-&--165212621111*55*$$##$##$11*;111;,,**,5,,34743443%,%,,&%>",
"55557,77000000075:5:5:55fftffffeiiyiiiii4ttt4t4ttsssstst;1;1;1;1------=-122266:5515;*:5*$$$#$#$=*1;1;1;15*5*5*%733777383,>,>>,,,",
"5555557700000000;5:5;557efhffftfyiiriyirtr4rt4t4tsttsstt1,1,1,1,;;-;--;;126116511;515*5*$$#$$$#$51135131,5,5,57744744433,,,,,,,,",
"5;;:;:1:304w4w4r0070q070999d99q944444444444t44t4sssssssr<<><-><<44w2482w51;11;1555656515&&&&&&&1gglgdldddqiqqqqq4<<<::<47884r444",
"::5555;530wrrwww000000q099d9d9qq444444444tr4t44tisssssst<<<-<<<<6828w242;511*51115151661&&&-&&&2ggllllllqiqqiqiq4<:4<<<<08884r4r",
"1;1;:5:;3044w44w000q700099d999qq444444444t4tt4r4ssssssst<<<>><<<44w444w4115,1;1;51626551<&&--&&1llgllllliqiqqiiq:<<:4<<484884rr4",
":5:5;;5;004rwww4700q000099999dqq44444444t4r44t4ttssssssw<&<<&<><w22www2w15;1111565551615-&&&&&-3lllgllldiiqiiiqi4<-4:<<4800444r4",
";5:;:1514www44ww0070qq7q9999qqqq444444444t4tr4trisssssst<<>-><<-224w2w48111111;555656215<&&&-->3glglglllqiqiqiiq<:<42<<:r44rw44r",
"5;:51:;:4w44ww4w00007qqq9d9dqqqq44444444t4r44tr4isssssst<<><-<><8w42w2w25;1;1;1116165561--&&-@-<glllllldiqiqqqqi4<<<<<:444r44ww4",
";:1;:11:www4wwww0000qq999dd9iq0044434444444t4trrpsssssai<<<<<>,,4w2ww84w515;1*1166516551:@--&&&4llllllllqqiqiiqq4:::4<<<4rr44r40",
"55:51:114wrw4ww400q00q99999d0i0i444444r44tr4t4t4tssssspt<1<<<<1142w424w215;111:115561615<@><@<&4lglgglgliiqiiqiq4<<4<4<4444r44r4",
"99999999riiiiriizzczczczxkxkkxkkryeeueedppufpfputwwwwwwwrrryrrrywwywewrw1;&,,,112w2w2w2w-<<<><>4ddgdddddr88w0rrr--<:<:<4ttriiuyy",
"9de9eeeeiiitiiiscccccccckcxxxxckuyededdejpfgggpgwwwwwwwwidydiyyityyyrryy1,*,,>>;w2wwwww2<-<-><><ddddddddrrrrrr8r:<<::-:4sstippdf",
"ddddeeefiiiiiiiicczcccccckkcxxxkuueedeefgggjjgfgwww:wt:tyyyyyyyyyrtyytty1&*>,&&1wwwwwwww<><>><>3ddddddddr84r4r88:<-::-<:tsiidddf",
"d999ddeetiititisccccccccckckxxxkreeueueegfgfggpjtwww::wwyyiyyyiyetywerrt1&>,,&&1wwww2www<<<>><>3dddddddyrrrr4rwr::<<<<::stsidgdg",
"f9e99eeeiiiiiiipccccccccckkckkckdeeeedefgpggggfgtwwwt:twypyytiiitryywywy1>,,,,,1www2ww4w<<>><>>3ddddddddrr4r8rr44-<::<-4ddiddidd",
"99ddd99diiiiiiipccccccccccckcczkeefuueeejgjggjgjwt::ww:wyiyiririyyyyyyyy1*>,>&&*wwwwwwww<><><>>3dddddddd4r4rr04r:<-<<-:4ddfddgdd",
"9hd9ededtiiiitiiccccccccckkkcckkueeeeefefgjggggfwwww:wttyyyyyitrtrtrwytr1*,,,&,1w2wwww4w<<>>><>4ddddddyyrrrr0w99<:<::<::gdfddfdd",
"999e9999riiriiisczcccccckkkkkkkidfdddufffpphppfptwwttwwt0rrwrrrw9rwwwt9r11,11*13ww2ww4rw<<<<<<>4dqdddyyyw4r40089:<<::<<4q09qq0qq",
"9*9*55559999w4ttzszsjjjja::t0330fhghghhgd9eeeytttsssppfr<>>>>>><626866w4984rrrr444r44r445,1,5,,568w8w4w879768877w<<w22w<O+OO+OOO",
"*9*955559999ww4tszzsjjjjtt4:333ifhggghghddeeyeyetspppppy<<<>>><>6w66862440r4r4rrr44r444r15,3,111886w2w2w67767796:w:2:22<OOOOOOOO",
"9*9*55559999w4wtsczsjjjs4<443330gghgggghutuetuytpppppppr<&>>>>&>66666w22r8rrwr4r4ww4rr441,3,,515ww68w2w49777777722w:222<OOOOOOOO",
"*9*95555:999wwwtsjjjjjjj44443330hhhghghgyteyetyypppsppzr>>>>&&<<6686622w0w8rwr4w4w44444r51,5,,1188w84w8w7879979722-w2221+OOOOOOO",
"9*55559599wwwwwwscjjjcjjr4033330ggghlghhyeyeytetpppkpppi<>@<<<>>2286w2444rr444rrr4rr0488111,,1554w8ww2w4977684442222122<OOOOOOOO",
"595555*599wwwwwtjsjjjjjj44343330ghhhghggtyteteyypppgpppu<@>>><><868644244r4rrrr44r4444081,11,111w2w48w8w786744444224222<OOOOOOOO",
"555555559ewwwwwtjjjjjjjj44433330gghghghhtyyyyyetpppggppr<<>>>@<<666844w4rr4rrrrrr44r48887,11,1114w2ww82w8768874342422221+OOOOOOO",
"555555556ewwwwwwssjssjss44440300hhhgghgguuyttuytpppppppy<<<>><<<66w6w4w4r4rr4r4r44484877111,111282w422w47687772w22222221O++OO+OO",
">3>3333>7q7q7q7qq77q7q7qyidyyiiyetf:t::efhhhhhhhtt4rrtt4>3<<>3>>ututtuytewwewte:;;;;;**;959:866222222-w-6w66w686ww666966=$*#$*#*",
"33>3>>3377q7q7q777777778yyiyyyyy:t:eeetehhhhhhhhrrtrrrrr33<33>33tuuuutuutweteetw;=;=;=:=569966w622:2<w-w86686866666www6:$*#**#*#",
">333>33>7q7q7qq777777777yiiyyiyyt6e6:t:thhhhhhhhrrtrr4r43>4><333tuuuuuuuteee:et6;*====*;59:99666:1222:w-68w4w89w:ww:6:w6&$*%#*#*",
"3>>>3>>>77q7q77q77877777iqdyiyyy:et:f:ethhhhhhhht4rrrtt433>33><3uuuuuuuueewtftte;=***==;569:6w8w21:1:::2w224666666w66w6:&&%**%*#",
">3>33>3377q77q7777778778qyiydyiye:eeeww:hhhhhhhhttrw4rrr333><333uttuuuuueett:te:=*===*=*66969666<:<22:224w22w4446ww6w6w6*#*##**#",
">33>>3>37q9q70q777777778iiidyiyyete:e:6thhhhhhhhtrwrrrr4>3333<>3uuuuuutuet:eftet***=*=;=:9666686:22:<44<2w4w224tw6w::6:6%*#**#%*",
">3>37>,777797q7777777777yyyipyyy:ee:wwwwhhhhhhhhrwrwrrr433333<<3uuuuuuuuettette:;=;;==;;69699w6642222<22:4www224:6w6w966*#*#*#*#",
"3>3>>7,77797077777757777iidyyiyyt:tte:wehhhhhhhftwwrr0043>3><<43tuuutuuueeeeeeee;=;;=*=*66966668:<2<2:22ww:2wwt46w66w66:#**#**#*",
"@@@>@>@%,777777797878878rrrw0rr0tewwwww9ddedefdd<<<<<>>>@@@@@@@>::::::::::555515;5;;11;1<3<3<4<4t4r4007432<1<4:<11111121*****;**",
"@@@>@>@@37777777798884849rr0rrr9eeweeeweedefeeee>>@>>-<@+++++@+@===:=:=:=:1*,11,5;555555<<<<<<<<4wrr7000<12<:<<:1<:1::1;**5***:*",
"@@@@@$@@,773777768884887000qqq00eeeee9eeeedeedee<>@>-@>@++OO++++========:*551,1,5515;5;;<<<<<<<200r40000::<2<::<:11:1-<1********",
">@@@$@$@,77377779687884800yr0rr06eeeeee9deeedeeu<>>>>>>-@@@+++++=:=:=:==;:5*51155;555555<3<4<<<2004r0000<<:-:<:<1:;111:1********",
"+$++@++$37735537844878880q00r000errw9rweeeddtrrt<@@<>>>@+O++O+++==:==:=:,15,,1,515;;11113<<2<<4<00300000::2-<<<:-1;111:1;;*;*;**",
"++$++$$+,7777535888884840qr00r09e9eereeqdyeertrt<<<>-@@-@@O@@@O+=====:==1,,1,11,:5556131<<<<<<<4000000002<-:<:<:11<:;11;**;5*:**",
"-+-+$@@$,7737737484878849rrrrrrr99wrwr9wyeutiitr<>@<<@-@+O+@+@+@==:====;,5,1111,;5;51522<<<<<<<<00400043<2<<:-<-1;1:;111;******:",
"+++$+$++,373733788888888rryrrryr9ww99w99eeeywwtt<@-@-<@<++@O++@%===-=-=;,,5,,,,555515:14<<<3<<22000000044<:22222-1<-1;;;;5*:5**5",
"$+$++$+$44444400ww0wrwwrujhpjjpu32214<4444222w22%@@@@%@@@@@@O@%O--&&%&&&&@--&&@-11133<3<<2<<<22<55,7177770787807&++##++%568242w2",
"+++++O++444r0444wrwwwwwrhajhfjuu31334<4<44:w2422%@@@@@@@@@O@%OO+&&&&&&&&&&&@&@&&1331<3<4<2<42<<<577777,103000030@++++++#66242842",
"++$+O$+$<4443004ww8w9wrwpshpjjau4<3<<444424w6666@@@@@@@@OO@OO@@@&&&&%*&&&@&&&&&&11214<2<:<2<<2<25,7,,73730030703#++#+++#62622424",
"+$++$+++444w0440wwrrrwwrahjafjau442444<<22w26662>@@@@@@@@@O@@O@O&&%&*%&&-@&@&+&&1211<314<2<::<2-377,573330030087%+O##++$6628w22w",
"$++++++$34404404wrwwrwwrahhajjhu<444<44466696666@@@@@%%OO@@O@OO@*%&*%&&&&&&&@&&&2<<4114<2<:<:1<25335,55308070030$+O#+++%22w4242w",
"+++++$O$34040330ww9wwwewphjpphpu4<<44<<4666666:6>@@@@@%+@OO@O@@@&&&%*%*&@&@-&&%&332<4<22-2<:<11<5,7,333330307003%+#O+++$42224242",
"$+++++$+34040440wrr8w9wraahhhjfu44<<44<<66666666%@@@@@@@OOOOO@OO$%&&*&%&-&@&&&&&<3<431112<2-1<:<7,35353330000708#++#+++%24242424",
"+$+$$++$34430430wwwwwr9ephjasjau<444<444666666:6%@@@@@@+O@@O@OO@&*&&%&&&@&&&&@&&4<3<3312<2<212217773755308078078&++##++%22w242w2",
"3>11113,33777767qrrrrqrrududeduu26226262:::5656:**&,&,>&       O********%*%%&&&-ttrteywe8884444rkllllllky000r0001&&&&&&-2w22w2w:",
"3333331333276677qerrrrrreeueuuye667666666565:::51,,1,1&%        %*,*****%***&&&-ttyteytt8784847rxxxxxxxl0r0000091-&;-&<<2222:222",
"3113313137777566rrqrrrqrdeuuedue66267227::5:556:1,,,,,,&       O********%*%%&$&&utyyuyty8788888yxxxxxxxlq0000000*&-,&&><222w2:2w",
"3333333337775578rrrreqrrdufdeufe86866666:5:5:::5,,1,,1*&        ,*****7***%*&&&1yyytutye8484487yxxxxxxxlr0r0r0w01&&&>--<2w222w::",
"333>333365555357eqqrrrereeuduude22866666:56:::5:5,,1>>>%        ********&&&$&&&;ywrueyuy8888847yxxxxxxxxq00rr0001&&1--><22422422",
"1333133177577667rrrrrr0rfueueuee6662666656:556:6,,,,,3>%        %*******%&&&$&&;utuuyuty8887888yxxxxxxxlr0000008;&&&>--<24224422",
"3333333376565557rrrqqrrruuduedue66666665:55:6:5:3>,,,,>>      O@*********&&%&&&&ytttytyt8884478rxxxxxxxl00000r001&&-<--<t:222222",
">313131113133136rqrerr99deduuuuew8889699:::;55::,,,3,3>%.O.OO O@%****5*%***11;-3weyyetew4484244wllkllllkyqrrr0091;&1<--:422w222w",
">>1>>>>3,*,*,,*,0qqqr9rrfghghfgfddldiidi*,>*----<<<3<3>>%%%%>%%%@>>@@>>@44t4444444444r4433313<34i00i0i0iiriiriir44<44<4444r4ri44",
">1>>3>>>,,,%,,,5qqqqrrryffhgfhffiiidlilq*%&*<---4<33333>%%%%%%%%&-@->@->44444r44ww4w444r333333370i0i0000ririirir44<4<44<4r4r444r",
">>131>1>,,,,*,,,0qqqrrrrfffhdhghliliddii--&--+--<<4<>33>%>%%%%%>@>>@@-<@4444444r4444r4443133333300000ii0itirtiri444<4<<4r4r44rr4",
"3>>>>>3>,,,,%,,5yqqirqrrfghhhhhgdidididi--&-----<4<3333>%%%%%%%%@&@->@@<44444r44404r444433333<38i0i0000irriiirir44<44<4<4r4rr4rr",
">3>>>>1>,*,,,**,0yyy0rryfffhhdfgididiii0<---<--->33>>>3>%%%%%%>%->@&<@<@44444444444r884433133337000ii0i0rriiirir<44<4<444r4r4444",
">>133>>1,*,,,,,1y00y0rrrffhfhhhhlidddlii--------<>3333<>%%>%%%%%&@&&@>@<4444w444r444444833333133ii00000iitiiiirr44<444<4r4r44i4i",
">1>>>1>3,,,*,,*,00y0rrryhdhhhhgdlqdiilii<-------333<3<3<%%%%%%%%>@@>>@>>4444w44444r44084331313370000000iiriiirii4444<<444r4t444t",
">>1>>>>>,*,*,,**yyyyryyyddffdfddildidili<<2-<<-2>33<3333%%>%%%%@@&&@@>@>444444444r44844433<311360ii0ii0iri4rrrrr<<<<<4<4r44i4i44",
"><>&>;&-3555715qkckkkkkk5,>>33>7ikiiiiiiidiidiui03300033>@@>@%%>@@@@+@@+@-&&&&&&r404r04r61211258kkikjzpp11<13<11$&#&-@@-4r4rr4r4",
"<>&1;&;>15555558kkkckckk7,>>%>>7iiikkiiiggdgggfp03033033>@@@@>%@@@@@@@@@+&&&&@&>4r0404r4616:61:9kkkkpzzp<1<<<1<<&%#%@$@>r4r44r4r",
",--*1&;&15555758kkckckkk,>>>>>>3iiiiiiiiggiggigg00300303@>>@%%%@@@@+@@@@&&-@&&&&rr4rr8481261161wkkkkkzzi1<<<1<1<&+&$@@@-444rr4r4",
"&&1&&;>,55555558kckkkckk3>>>%>%3ikiiiikiggggggpk03303003>@@>%%@>+@@@@@@+$@&&&@@:44w4884r6:252128kkkkkkki<11<<<<<&#+&+-+-4rr44r40",
";>1&&;&;15555150kkkkxkkk3>>>3%>7iiiiiiiiigdgpppp03003303@@@>@@@%@+@@+@@+&-@&@&&&88848r8816216119kkkkkkki3<1<<11<&#%#&@--4r4r44r4",
"&;&,>;<;55555559kckckxck3>3>%3%3iikikiikgggipkpp03303003@>>@@>%%@@@@@@@@@&-@&-@>8r8r8888221::22wkkkkkkkk1<<<1<<<$@$%@$@<r4r4rr4r",
"1;&-&;&&,5555159kkkkkkkk3>3%>>>7kikiiikqggggpppp00330303@@@@@@@@@@@@@@@@@-&&&&&<8r08r8r861511668kkkkkkki1<<<<<<<&%#%@@@>4440404r",
"&&1&;>1&55555557kkckkkkk3>>>3>>7iiiiiiiidigipppp03003073@>@>@>@>@@@@@@@@&@&@-@@>88888888216:2119ikikkkii11<<11<1$##%-@@>4r0404r4",
"555555551,&,,,,1k0i3i3ii0i3i000igklkgkkd0000r4rr7qq0qqqq&&&&&&&&-@--&$&$;;;-;;:187884848786677655:666:65111111<1*&&;&1&&1111111:",
"55555555,1,11&*,i33330330iiiii0ilgkggkgg84444444qq7q7q77;>>*,>,&--&&*$&&;:;-1-;;4848488868869867;:=;;;=:31334333;<1&&;&;:1-11:1-",
"55555555,&,&&>,1i3i33303ii0i0iiigkglgllgr484r4r4707qq0q7>*&,>*>*$&$&&&$&;;;:-11:4884884489866897=;=;;*=*13333113;<&-1&>;--1-1;1-",
"555:55551,&>*&&,333303300ii0ii0ilgkgkggg448844440qq07q70&>>&1&&1&&&&&&&&;;1;;;;:8878878876699676;;;;;;:*3<1133311&*,&&;&11;1-1-1",
"55555555,&<>,*>133303303i00iiiiigglgkkkz4r44444r07q080871,,&1&&&&-&*&&&*;;1-;:-18878888769678666=*=;;=;=13133313&;;>;&;,-11-11;1",
"55555555,*&*&>1&333030330iii0i0igkkgkkssr4w44w440q7q0qq7&&>,&>,,&&$&&&&&;;-:;1:;4884788986968965;:*:;;;;13315531&>&&-&&-1;<:1--:",
"55553555,1,>,**1i33300300ii0ii0iglzpskss4r4444r47qqqqq88,,*&,*1&&&&&&&&$1:;;;;;14888877679776976:**:;;;;133331311*&;1&*&11111111",
"55557657,&>;&>*;333033300iii00iiljkzzzzz4444444477777773&-&>&&&;*-**;;**;-1;:1;:8888889766698755==*=;=;=33337577111;1,11--;<;-<-",
"557433731;::1;;544344344ii0i0i0ijjzjzjss22616122%%#%&#$%&#&&$%%&4<2321221&&-&-*17qq8q8q7665:5:9*=$$o==$=9qqqqqqq04044404--------",
"773774741:;1:1;:3444430400i0i00ijzjzcjzs161621:1*%$%$$$%$&&#$&$&222242421&&;&&%1988qq07q655959:5o$$=$oo=qqqqqqqq00404044-----=-=",
"773337331:-::1:5443443440i000iiizszzsscs62:11221*%%$%&%$$%+&&$%%2:222242-&&&&&-17q0988q8656::65:=$ooo#==0qqqqqqq04400004---=---=",
"737483381;1:1;;5344444440i0ii00izszjjzss25216112%%#%$$$&&$&&#&&$<22422121&&&-&&;q97qqq7q6:55565:$$=$==o=qqqqqqqq04004444-=====--",
"743438331::1<<<3434444343iii00iizsjzjjzs22:12121-++-&+&+&$&$$@-@422223231-&&&&-17q9q09796:6659::o$$==#$=qqqqr00r00404tr4-=-:---=",
"33773337:1:<24<<44444304ii03i00izjjzjzzs1625121:&&$++&+&&+$&--@-4:422222,&-**&&1q7q77qq866565:5;$$$oo=o=0qqq0r0004404444---=---=",
"387333471-<<<:<4443430330i0ii00izjszzjza:5121222&++&+--+$&@-@-@-222222321&&--&&18q9qqq696566:99*$$$$=o=*qqy00irr04044wt4=-==---=",
"334378332-22<:>3434433330ii00i0izjjzzzju62612122=@&+-@$&&$-@-@-@24<222221&&&&&&*970q79996:655555o$=o$=o=0q00000000404w4:--------"
};
